<?xml version="1.0" standalone="no"?>
<!DOCTYPE svg PUBLIC "-//W3C//DTD SVG 20010904//EN"
 "http://www.w3.org/TR/2001/REC-SVG-20010904/DTD/svg10.dtd">
<svg version="1.0" xmlns="http://www.w3.org/2000/svg"
 width="32.000000pt" height="32.000000pt" viewBox="0 0 32.000000 32.000000"
 preserveAspectRatio="xMidYMid meet">

<g transform="translate(0.000000,32.000000) scale(0.100000,-0.100000)"
fill="#000000" stroke="none">
<path d="M120 224 c-7 -7 -9 -14 -4 -14 4 0 2 -6 -5 -12 -10 -11 -16 -8 -29
10 -31 41 -55 16 -76 -80 -6 -25 -3 -28 36 -39 25 -6 87 -9 146 -7 88 3 106 7
118 23 21 28 17 44 -13 56 -16 6 -58 26 -95 44 -57 29 -68 32 -78 19z m20 -4
c0 -5 -5 -10 -11 -10 -5 0 -7 5 -4 10 3 6 8 10 11 10 2 0 4 -4 4 -10z m-4 -39
c-10 -11 -26 -19 -37 -18 -28 2 -23 12 14 24 17 5 34 11 36 12 2 0 -4 -8 -13
-18z m94 -16 c0 3 5 3 10 0 11 -7 -54 -45 -76 -45 -6 0 -17 7 -24 15 -11 13
-9 20 10 40 l23 24 28 -20 c16 -11 29 -18 29 -14z m-130 -21 l25 -15 -25 5
c-14 3 -31 6 -37 6 -7 0 -13 5 -13 10 0 14 21 12 50 -6z m200 -14 c-8 -5 -33
-9 -55 -8 l-40 1 45 7 c25 4 50 8 55 8 6 1 3 -3 -5 -8z m-178 -15 c20 -3 68
-6 105 -6 55 -1 63 -3 43 -11 -29 -11 -228 -7 -248 5 -21 14 -2 28 31 23 18
-3 49 -8 69 -11z"/>
</g>
</svg>
